# xmcd
#
# Track frame offsets:
#	150
#	11925
#	34652
#	47402
#	60450
#	73610
#	89660
#	98552
#	114302
#	125490
#	137075
#	149500
#	161340
#	171827
#	180355
#
# Disc length: 2587
#
# Revision: 2
# Processed by: cddbd v1.5.1PL0 Copyright (c) Steve Scherf et al.
# Submitted via: CedeCatalogueitor 2.5 http://usuarios.lycos.es/kakasboy
# Normalized: r1:DSETVAR1
#
DISCID=c70a190f
DTITLE=Various Artist - Original Legends Versions
DYEAR=1996
DGENRE=
TTITLE0=The Platters - Only You
TTITLE1=Gloria Gaynor - Never Can Say Goodbye
TTITLE2=Ike and Tina Turner - A Fool In Love
TTITLE3=Kenny Rogers - Ruby Don't Take Your Love To Town
TTITLE4=Percy Sledge - When A Man Loves A Woman
TTITLE5=Glenn Miller - In The Mood
TTITLE6=The Beach Boys - Surfin' Safari
TTITLE7=James Brown - It's A Man's World
TTITLE8=Nat King Cole - On The Sunny Side Of The Street
TTITLE9=Ray Charles - See See Rider
TTITLE10=Sam Cooke - You Send Me
TTITLE11=Sam and Dave - Hold On, I'm Coming
TTITLE12=Chuck Berry - Maybellene
TTITLE13=Fats Domino - My Girl Josephine
TTITLE14=Ella Fitzgerald - Bei Mir Bist Du Schön
EXTD=
EXTT0=
EXTT1=
EXTT2=
EXTT3=
EXTT4=
EXTT5=
EXTT6=
EXTT7=
EXTT8=
EXTT9=
EXTT10=
EXTT11=
EXTT12=
EXTT13=
EXTT14=
PLAYORDER=
